<svg version="1.2" xmlns="http://www.w3.org/2000/svg" viewBox="0 0 4500 1030">
	<defs>
		<linearGradient id="g1" x2="1" gradientUnits="userSpaceOnUse" gradientTransform="matrix(259.403,407.634,-365.493,232.586,0,7.485)">
			<stop offset="0" stop-color="#6366f1"/>
			<stop offset="1" stop-color="#8b5cf6"/>
		</linearGradient>
		<filter id="glow">
			<feGaussianBlur stdDeviation="3" result="blur"/>
			<feMerge>
				<feMergeNode in="blur"/>
				<feMergeNode in="SourceGraphic"/>
			</feMerge>
		</filter>
	</defs>
	<style>
		.s0 { fill: url(#g1) }
		.s1 { opacity: .25;fill: #ffffff }
		.s2 { fill: #1a1a2e }
		.s3 { fill: #818cf8 }
	</style>

	<!-- All content scaled 2.5x -->
	<g transform="scale(2.5)">
		<!-- Bookmark icon -->
		<g filter="url(#glow)">
			<path class="s0" d="m0 7.49h219.6v362.34l-109.8-78.69-109.8 78.69z"/>
			<path class="s1" d="m54.9 84.56l128.1 76.86-128.1 76.86z"/>
		</g>
		<!-- Wordmark — shifted right for spacing -->
		<g transform="translate(50, 0)">
			<path class="s2" d="m290.44 267q-17.07 0-32.68-4.79-15.6-4.99-24.76-12.79l9.47-20.92q8.74 6.97 21.54 11.66 13 4.37 26.53 4.37 11.34 0 18.42-2.29 7.07-2.61 10.19-6.87 3.54-4.37 3.54-9.78 0-6.66-4.79-10.61-4.68-4.06-12.48-6.46-7.49-2.6-16.86-4.57-9.15-2.08-18.52-4.79-9.15-2.91-16.85-7.28-7.6-4.69-12.49-12.07-4.58-7.5-4.58-19.15 0-11.86 6.24-21.64 6.46-9.99 19.36-15.82 13.11-6.03 32.98-6.03 13.22 0 25.91 3.33 13.11 3.33 22.68 9.57l-8.53 21.12q-9.78-6.03-20.19-8.63-10.3-2.92-20.08-2.92-11.03 0-18.21 2.71-6.97 2.7-10.19 7.28-3.23 4.27-3.23 9.78 0 6.66 4.68 10.82 4.79 3.85 12.28 6.25 7.81 2.39 17.07 4.58 9.26 1.97 18.52 4.78 9.26 2.71 16.85 7.28 7.7 4.27 12.28 11.87 4.89 7.28 4.89 18.73 0 11.65-6.55 21.64-6.35 9.67-19.57 15.81-12.9 5.83-32.87 5.83zm109.46-2.08h-26.02v-111.13h24.87v29.66l-4.47-8.85q5.51-10.71 16.23-16.44 10.82-5.72 24.66-5.72 15.5 0 26.95 7.81 11.65 7.59 15.4 23.41l-10.2-3.54q5.41-12.59 17.69-20.08 12.69-7.6 29.03-7.6 13.52 0 23.62 5.31 10.51 5.1 16.23 16.02 5.93 10.72 5.93 27.47v63.68h-26.01v-60.25q0-14.77-6.56-21.95-6.55-7.39-18.41-7.39-8.54 0-15.3 3.85-6.45 3.54-10.2 11.03-3.43 7.08-3.43 18.21v56.5h-26.01v-60.25q0-14.77-6.56-21.95-6.45-7.39-18.52-7.39-8.53 0-15.19 3.85-6.45 3.54-10.2 11.03-3.53 7.08-3.53 18.21zm285.51 0h-24.66v-22.47l-1.36-4.69v-39.43q0-11.34-7.07-17.69-6.66-6.45-20.71-6.45-9.36 0-18.41 3.12-8.85 2.81-15.19 7.8l-10.1-18.83q8.85-6.76 21.12-10.2 12.59-3.64 25.91-3.64 24.04 0 37.15 11.76 13.32 11.45 13.32 35.59zm-59.42 1.35q-12.69 0-22.16-4.06-9.26-4.47-14.36-11.86-4.99-7.7-4.99-17.27 0-9.37 4.37-16.65 4.68-7.6 14.77-11.86 10.31-4.58 27.06-4.58h32.25v17.27h-30.38q-13.32 0-17.9 4.37-4.57 4.16-4.57 10.41 0 7.07 5.41 11.23 5.82 4.16 15.71 4.16 9.78 0 17.17-4.16 7.7-4.58 11.02-13l4.48 15.5q-3.85 9.78-13.63 15.19-9.47 5.31-24.25 5.31zm119.35-1.35h-26.01v-111.13h24.87v30.59l-2.92-8.95q4.79-11.34 15.51-17.06 10.92-5.93 26.74-5.93v24.76q-1.67-0.21-3.23-0.31-1.25-0.1-2.6-0.1-14.78 0-23.62 8.63-8.74 8.53-8.74 25.7zm106.23 1.35q-18.2 0-28.4-9.26-9.89-9.67-9.89-28.09v-99.68h26.02v99.06q0 7.9 4.05 12.48 4.06 4.16 11.55 4.16 8.54 0 14.36-4.57l7.49 18.52q-4.68 3.74-11.55 5.62-6.55 1.76-13.63 1.76zm17.59-91.77h-73.98v-20.7h73.98z"/>
			<path class="s3" d="m921.5 264.92h-27.79l65.45-145.67h26.74l65.66 145.67h-28.3l-56.29-131.21h10.82zm95.72-33.71h-93.23l7.18-21.33h78.56zm96.77 35.17q-16.03 0-28.93-6.97-12.69-7.29-19.98-19.77-7.28-13.01-7.28-30.28 0-17.17 7.28-29.86 7.29-12.8 19.98-19.77 12.9-7.18 28.93-7.18 13.94 0 24.97 6.35 11.03 5.93 17.48 18.72 6.45 12.28 6.45 31.74 0 19.35-6.24 32.15-6.25 12.49-17.28 18.73-11.02 6.14-25.38 6.14zm3.12-22.16q9.36 0 16.65-4.17 7.59-4.26 11.86-12.07 4.47-8.01 4.47-18.62 0-10.72-4.47-18.42-4.27-7.9-11.86-11.86-7.29-4.47-16.65-4.47-9.37 0-16.86 4.47-7.39 3.96-11.86 11.86-4.37 7.7-4.37 18.42 0 10.61 4.37 18.62 4.47 7.81 11.86 12.07 7.49 4.17 16.86 4.17zm58.58 20.81h-24.87v-26.33l0.94-29.44-2.08-29.55v-69.09h26.01zm90.1 0h-26.74l-47.65-111.13h26.95l41.1 98.02h-13.32l42.35-98.02h25.07zm90.42 0h-26.01v-111.12h26.01zm-13-129.54q-7.29 0-12.07-4.48-4.58-4.58-4.58-11.13 0-6.56 4.58-10.93 4.78-4.68 12.07-4.68 7.28 0 11.86 4.48 4.89 4.05 4.89 10.71 0 6.77-4.68 11.55-4.58 4.48-12.07 4.48zm81.78 130.89q-14.05 0-26.95-3.43-12.69-3.75-20.19-8.95l9.99-19.77q7.39 4.79 17.9 8.11 10.4 2.81 20.81 2.81 12.28 0 17.69-3.01 5.51-3.54 5.51-9.26 0-4.48-3.85-6.77-3.53-2.49-9.78-3.74-5.93-1.36-13.32-2.29-7.28-1.04-14.77-2.71-7.18-1.97-13.32-5.2-6.14-3.54-9.99-9.36-3.54-5.94-3.54-15.51 0-10.51 5.83-18.21 6.14-7.9 17.06-12.07 10.93-4.47 25.91-4.47 11.24 0 22.58 2.6 11.66 2.5 19.15 7.08l-9.99 19.77q-7.81-4.79-16.03-6.46-7.9-1.87-15.81-1.87-11.86 0-17.69 3.75-5.62 3.22-5.62 8.74 0 4.89 3.54 7.49 3.85 2.39 9.99 3.95 6.03 1.36 13.32 2.5 7.38 0.94 14.77 2.91 7.29 1.56 13.32 5 6.24 3.22 9.78 9.15 3.85 5.62 3.85 15.09 0 10.3-6.14 18.21-6.03 7.49-17.27 11.86-11.13 4.06-26.74 4.06zm122.78 0q-17.17 0-30.7-7.18-13.21-7.49-21.02-20.18-7.59-13.12-7.59-29.66 0-16.65 7.59-29.24 7.91-13 21.02-20.18 13.53-7.39 30.7-7.39 17.17 0 30.48 7.39 13.53 7.18 21.02 19.97 7.7 12.7 7.7 29.45 0 16.65-7.7 29.66-7.49 12.69-21.02 20.18-13.42 7.18-30.48 7.18zm0-22.16q9.47 0 16.96-4.16 7.38-4.27 11.65-12.07 4.37-8.02 4.37-18.63 0-10.72-4.37-18.42-4.27-7.8-11.65-11.86-7.49-4.37-16.86-4.37-9.47 0-17.06 4.37-7.29 4.06-11.86 11.86-4.27 7.7-4.27 18.42 0 10.61 4.27 18.63 4.57 7.8 11.86 12.07 7.49 4.16 16.96 4.16zm110.19 20.81h-26.02v-111.13h24.87v30.49l-3.02-8.85q4.89-11.34 15.61-17.06 10.93-5.93 26.74-5.93v24.76q-1.66-0.2-3.22-0.31-1.25-0.21-2.6-0.21-14.88 0-23.62 8.74-8.74 8.54-8.74 25.6z"/>
		</g>
	</g>
</svg>
